<?xml version="1.0" encoding="UTF-8"?>
<svg version="1.1" xmlns="http://www.w3.org/2000/svg" width="64" height="64">
<path d="M0 0 C2.7890625 1.171875 2.7890625 1.171875 5.625 2.75 C10.86119918 5.52210545 16.0430472 7.49961373 21.69921875 9.23828125 C24 10 24 10 25 11 C26.44531624 26.77803567 25.01902251 41.22781634 15 54 C12.83390429 56.30507087 10.59340095 58.19564274 8 60 C7.43410156 60.41121094 6.86820313 60.82242188 6.28515625 61.24609375 C2.01051984 64.04738609 -2.0155008 64.97993935 -7 64 C-9.80909308 62.8859665 -12.4056922 61.54554507 -15 60 C-15 59.34 -15 58.68 -15 58 C-15.57621094 57.77570312 -16.15242188 57.55140625 -16.74609375 57.3203125 C-23.58229309 53.31574512 -27.87118246 44.3882491 -30 37 C-31.19080795 31.53386073 -31.11408137 26.18785282 -31.0625 20.625 C-31.05798828 19.69816406 -31.05347656 18.77132813 -31.04882812 17.81640625 C-31.03711574 15.54420291 -31.02071372 13.27213612 -31 11 C-30.42032471 10.7733667 -29.84064941 10.5467334 -29.2434082 10.31323242 C-26.59793732 9.27593284 -23.95522038 8.23178605 -21.3125 7.1875 C-20.40048828 6.83107422 -19.48847656 6.47464844 -18.54882812 6.10742188 C-13.22575916 4.00366877 -13.22575916 4.00366877 -8.23046875 1.23828125 C-5.25477911 -0.41372158 -3.36220929 -0.39758773 0 0 Z M-10.625 6.75 C-15.97344882 9.52278305 -21.36419918 11.8803404 -27 14 C-27.41490625 28.10681252 -27.41131462 39.60067735 -18 51 C-13.96082646 55.15204466 -9.57770016 59.18118473 -4 61 C3.53178608 59.85385864 10.01349876 53.66478081 14.68359375 47.92578125 C20.14610363 39.93463178 21.15926291 32.11816225 21.0625 22.6875 C21.05798828 21.85154297 21.05347656 21.01558594 21.04882812 20.15429688 C21.03710548 18.10283351 21.01917203 16.05140727 21 14 C20.24976563 13.69707031 19.49953125 13.39414063 18.7265625 13.08203125 C12.70629243 10.61781491 6.87789539 8.01719334 1.15625 4.91796875 C-3.5158773 2.92892905 -6.46305027 4.53175766 -10.625 6.75 Z " fill="#FFFFFF" transform="translate(35,0)"/>
<path d="M0 0 C2 2 2 2 2.1015625 5.1015625 C1.14698126 10.47003835 -2.85539077 13.7263408 -6.625 17.375 C-7.32496094 18.09816406 -8.02492188 18.82132813 -8.74609375 19.56640625 C-11.98649436 22.77073561 -14.32859517 24.76931584 -18.68359375 26.265625 C-23.06775392 25.91447907 -24.44278854 24.5383634 -27.4375 21.375 C-28.30246094 20.49585937 -29.16742187 19.61671875 -30.05859375 18.7109375 C-32 16 -32 16 -32.41015625 13.2890625 C-32 11 -32 11 -30 9 C-26.06636961 8.47551595 -24.52011329 8.61010321 -21.30078125 11.0234375 C-20.54152344 11.67570312 -19.78226563 12.32796875 -19 13 C-18.15695313 12.14535156 -17.31390625 11.29070313 -16.4453125 10.41015625 C-15.33867407 9.29413953 -14.23189598 8.17826128 -13.125 7.0625 C-12.56941406 6.49853516 -12.01382813 5.93457031 -11.44140625 5.35351562 C-7.4872172 1.37550616 -5.67460865 -0.42559565 0 0 Z M-5.44873047 5.30102539 C-6.2746167 6.19035767 -6.2746167 6.19035767 -7.1171875 7.09765625 C-7.72433594 7.73380859 -8.33148438 8.36996094 -8.95703125 9.02539062 C-10.23396842 10.38164874 -11.50484372 11.74364027 -12.76953125 13.11132812 C-13.68412109 14.06362305 -13.68412109 14.06362305 -14.6171875 15.03515625 C-15.17003418 15.6269165 -15.72288086 16.21867676 -16.29248047 16.82836914 C-18 18 -18 18 -20.10498047 17.75976562 C-23.30519333 16.47671198 -25.4327183 14.27554514 -28 12 C-27.41675605 15.22540929 -26.47785202 16.9757611 -24.1875 19.3125 C-23.68605469 19.84488281 -23.18460938 20.37726562 -22.66796875 20.92578125 C-21.06368328 22.20999488 -21.06368328 22.20999488 -19.12524414 21.77392578 C-16.55257331 20.83706575 -15.25582285 19.62856362 -13.328125 17.69140625 C-12.66425781 17.02689453 -12.00039063 16.36238281 -11.31640625 15.67773438 C-10.63449219 14.97970703 -9.95257813 14.28167969 -9.25 13.5625 C-8.55261719 12.86833984 -7.85523437 12.17417969 -7.13671875 11.45898438 C-3.42192561 8.26874409 -3.42192561 8.26874409 -2 4 C-4.07652338 3.77727974 -4.07652338 3.77727974 -5.44873047 5.30102539 Z " fill="#FFFFFF" transform="translate(47,19)"/>
<path d="M0 0 C0.99 0 1.98 0 3 0 C2.84910058 4.97968095 0.11880689 7.32187142 -3.2109375 10.64453125 C-5 12 -5 12 -8 12 C-8 12.66 -8 13.32 -8 14 C-9.32 14 -10.64 14 -12 14 C-12 13.01 -12 12.02 -12 11 C-11.01 11 -10.02 11 -9 11 C-9 10.01 -9 9.02 -9 8 C-7.28515625 6.2109375 -7.28515625 6.2109375 -5.0625 4.375 C-4.33160156 3.76398437 -3.60070312 3.15296875 -2.84765625 2.5234375 C-2.23792969 2.02070312 -1.62820312 1.51796875 -1 1 C-0.67 0.67 -0.34 0.34 0 0 Z " fill="#FFFFFF" transform="translate(46,43)"/>
<path d="M0 0 C0.66 0 1.32 0 2 0 C2 1.32 2 2.64 2 4 C0.93458984 4.34611328 0.93458984 4.34611328 -0.15234375 4.69921875 C-1.07144531 5.02535156 -1.99054687 5.35148438 -2.9375 5.6875 C-3.85402344 6.00074219 -4.77054688 6.31398438 -5.71484375 6.63671875 C-8.26532213 7.81257756 -8.26532213 7.81257756 -8.81640625 10.64453125 C-8.90728516 11.81048828 -8.90728516 11.81048828 -9 13 C-9.99 13 -10.98 13 -12 13 C-12 10.36 -12 7.72 -12 5 C-8.31109207 3.0268632 -5.11804977 1.70595139 -1 1 C-0.67 0.67 -0.34 0.34 0 0 Z " fill="#FFFFFF" transform="translate(22,10)"/>
</svg>
