<?xml version="1.0" encoding="UTF-8"?>
<svg version="1.1" xmlns="http://www.w3.org/2000/svg" width="64" height="64">
<path d="M0 0 C5.74562325 4.2777633 9.34215367 9.40536725 11.60546875 16.1953125 C11.73848513 19.02498368 11.81771342 21.82923283 11.84375 24.66015625 C11.85182175 25.48987442 11.85989349 26.31959259 11.86820984 27.17445374 C11.88203157 28.92869996 11.89276226 30.68297285 11.90063477 32.43725586 C11.9178831 35.11949353 11.96178866 37.80050944 12.00585938 40.48242188 C12.01598374 42.18749095 12.02450064 43.89257048 12.03125 45.59765625 C12.04875809 46.39880356 12.06626617 47.19995087 12.08430481 48.02537537 C12.07040251 51.59319347 11.91426492 53.76020792 9.82202148 56.70825195 C6.49076029 58.94315799 3.21180723 58.62245879 -0.64453125 58.4453125 C-1.38960937 58.42726562 -2.1346875 58.40921875 -2.90234375 58.390625 C-4.73362826 58.34366899 -6.56424774 58.27192902 -8.39453125 58.1953125 C-8.72453125 59.1853125 -9.05453125 60.1753125 -9.39453125 61.1953125 C-10.67328125 61.2571875 -11.95203125 61.3190625 -13.26953125 61.3828125 C-14.34847656 61.43501953 -14.34847656 61.43501953 -15.44921875 61.48828125 C-16.09117188 61.39160156 -16.733125 61.29492188 -17.39453125 61.1953125 C-19.70814927 57.72488547 -19.90473853 56.27697077 -19.39453125 52.1953125 C-17.76953125 50.2578125 -17.76953125 50.2578125 -15.39453125 49.1953125 C-11.72159329 49.41568878 -10.02486579 49.56497796 -7.39453125 52.1953125 C-5.02943764 52.49591193 -2.65011244 52.69046262 -0.26953125 52.8203125 C1.01179688 52.89507812 2.293125 52.96984375 3.61328125 53.046875 C4.60070313 53.09585938 5.588125 53.14484375 6.60546875 53.1953125 C6.60546875 52.2053125 6.60546875 51.2153125 6.60546875 50.1953125 C3.63546875 49.7003125 3.63546875 49.7003125 0.60546875 49.1953125 C0.60546875 48.5353125 0.60546875 47.8753125 0.60546875 47.1953125 C-0.38453125 46.7003125 -0.38453125 46.7003125 -1.39453125 46.1953125 C-1.31379265 42.25696372 -1.20093748 38.32017923 -1.08203125 34.3828125 C-1.05947266 33.26326172 -1.03691406 32.14371094 -1.01367188 30.99023438 C-0.97822266 29.91708984 -0.94277344 28.84394531 -0.90625 27.73828125 C-0.88006592 26.74852295 -0.85388184 25.75876465 -0.8269043 24.73901367 C-0.39453125 22.1953125 -0.39453125 22.1953125 0.88745117 20.34887695 C2.60546875 19.1953125 2.60546875 19.1953125 6.60546875 19.1953125 C5.98849556 17.71277983 5.36162979 16.23436076 4.73046875 14.7578125 C4.38242187 13.93410156 4.034375 13.11039063 3.67578125 12.26171875 C2.78097505 10.03784535 2.78097505 10.03784535 0.60546875 9.1953125 C0.60546875 8.5353125 0.60546875 7.8753125 0.60546875 7.1953125 C-0.05453125 7.1953125 -0.71453125 7.1953125 -1.39453125 7.1953125 C-1.80703125 6.7415625 -2.21953125 6.2878125 -2.64453125 5.8203125 C-5.65701781 3.02300355 -8.71098852 2.22268718 -12.796875 2.15625 C-19.6725296 2.59050187 -23.77678946 4.42798547 -28.58203125 9.5078125 C-30.69848111 12.64599678 -32.01410854 15.67523459 -33.39453125 19.1953125 C-32.61078125 19.3190625 -31.82703125 19.4428125 -31.01953125 19.5703125 C-28.39453125 20.1953125 -28.39453125 20.1953125 -26.39453125 22.1953125 C-25.93637137 26.32282398 -26.07052267 30.48282018 -26.08203125 34.6328125 C-26.06591797 35.79103516 -26.04980469 36.94925781 -26.03320312 38.14257812 C-26.03255859 39.25181641 -26.03191406 40.36105469 -26.03125 41.50390625 C-26.02826904 42.52282959 -26.02528809 43.54175293 -26.0222168 44.59155273 C-26.39453125 47.1953125 -26.39453125 47.1953125 -27.72973633 49.02758789 C-30.32299493 50.84655781 -32.32214247 50.5793611 -35.39453125 50.1953125 C-37.05493164 49.09423828 -37.05493164 49.09423828 -38.39453125 47.1953125 C-38.96634879 42.88819624 -38.86690866 38.55913822 -38.84057617 34.21875 C-38.83214116 32.09794618 -38.86069599 29.9799074 -38.89257812 27.859375 C-38.94056073 18.62609171 -38.12601972 11.50087612 -31.95703125 4.3828125 C-31.11140625 3.6609375 -30.26578125 2.9390625 -29.39453125 2.1953125 C-28.12609375 1.0815625 -28.12609375 1.0815625 -26.83203125 -0.0546875 C-19.73911046 -5.14704089 -7.26624022 -4.43101216 0 0 Z " fill="#FFFFFF" transform="translate(45.39453125,2.8046875)"/>
<path d="M0 0 C1.98 0.99 1.98 0.99 4 2 C4 8.27 4 14.54 4 21 C2.02 21.99 2.02 21.99 0 23 C0 15.41 0 7.82 0 0 Z " fill="#FFFFFF" transform="translate(60,26)"/>
<path d="M0 0 C0 7.59 0 15.18 0 23 C-1.32 22.34 -2.64 21.68 -4 21 C-4.08687496 17.87517438 -4.14034568 14.75065754 -4.1875 11.625 C-4.21263672 10.73554687 -4.23777344 9.84609375 -4.26367188 8.9296875 C-4.27333984 8.07890625 -4.28300781 7.228125 -4.29296875 6.3515625 C-4.3086792 5.56604004 -4.32438965 4.78051758 -4.34057617 3.97119141 C-4.22818604 3.32069824 -4.1157959 2.67020508 -4 2 C-1 0 -1 0 0 0 Z " fill="#FFFFFF" transform="translate(4,26)"/>
</svg>
