<?xml version="1.0" encoding="UTF-8"?>
<svg version="1.1" xmlns="http://www.w3.org/2000/svg" width="125" height="120">
<path d="M0 0 C0.83595703 0.00451172 1.67191406 0.00902344 2.53320312 0.01367188 C4.58466649 0.02539452 6.63609273 0.04332797 8.6875 0.0625 C9.1825 1.0525 9.1825 1.0525 9.6875 2.0625 C8.52734375 2.09988281 7.3671875 2.13726562 6.171875 2.17578125 C-2.99745415 2.53842674 -11.48747284 3.311168 -20.3125 6.0625 C-19.3225 7.0525 -18.3325 8.0425 -17.3125 9.0625 C-16.76464844 8.8459375 -16.21679688 8.629375 -15.65234375 8.40625 C-3.76162684 4.22999821 8.21874953 4.92779799 19.6875 10.0625 C20.6775 10.7225 21.6675 11.3825 22.6875 12.0625 C24.6771995 12.45263716 26.67769869 12.79452649 28.6875 13.0625 C25.93229785 10.10320881 23.22122712 8.02568174 19.6875 6.0625 C20.3475 5.4025 21.0075 4.7425 21.6875 4.0625 C22.63496094 4.78566406 22.63496094 4.78566406 23.6015625 5.5234375 C30.23772692 10.20891382 35.35576524 11.73352811 43.37890625 12.55078125 C53.41461029 14.10293855 59.42006378 21.27558327 65.35546875 28.90234375 C68.71008685 34.34253088 69.07481685 39.66082307 69.0625 45.875 C69.06117065 47.07213623 69.06117065 47.07213623 69.05981445 48.29345703 C68.92364817 55.06029923 67.79859656 60.73658962 63.046875 65.81640625 C61.09924811 69.03446792 61.53970546 72.00453523 61.75 75.625 C61.99312511 85.62366165 60.04623217 92.67594926 53.4375 100.4375 C46.4751528 107.60428806 38.1769406 112.86403505 27.88671875 113.13671875 C27.16097656 113.11222656 26.43523437 113.08773437 25.6875 113.0625 C25.3575 112.4025 25.0275 111.7425 24.6875 111.0625 C25.52152344 110.90394531 26.35554688 110.74539062 27.21484375 110.58203125 C39.16016026 108.10539633 47.60928992 104.35953413 54.6875 94.0625 C58.50344541 86.70632779 59.40144959 79.25784437 59.6875 71.0625 C58.6975 71.7225 57.7075 72.3825 56.6875 73.0625 C56.28878863 75.61667068 56.28878863 75.61667068 56.3125 78.5625 C55.74983278 87.5976371 52.2197501 94.45240384 45.5859375 100.59375 C37.97430338 106.48258628 30.13007136 107.81433767 20.6875 107.0625 C17.57308899 106.30368237 14.65772863 105.25677943 11.6875 104.0625 C10.2025 103.5675 10.2025 103.5675 8.6875 103.0625 C7.98625 103.990625 7.285 104.91875 6.5625 105.875 C2.3237643 110.8951786 -2.5878444 112.57739512 -9 113.140625 C-12.87462172 113.00972562 -15.78833618 111.64229758 -19.3125 110.0625 C-22.3125 108.72916667 -22.3125 108.72916667 -25.3125 110.0625 C-31.55615499 110.44991294 -37.49564467 110.64776903 -43.3125 108.0625 C-43.8075 108.5575 -43.8075 108.5575 -44.3125 109.0625 C-47.91527895 109.46280877 -49.6895462 109.50512507 -52.6875 107.375 C-54.60737401 104.6428716 -54.74274698 103.33237707 -54.3125 100.0625 C-53.8175 99.0725 -53.8175 99.0725 -53.3125 98.0625 C-53.86580193 96.09962808 -53.86580193 96.09962808 -54.75 93.9375 C-57.43034124 86.157065 -56.68925653 80.74042196 -53.44921875 73.328125 C-51.48510832 69.41340318 -49.68118225 66.73803207 -45.71411133 64.7800293 C-43.06635302 63.29010093 -43.06635302 63.29010093 -42.74487305 60.51879883 C-42.77105713 59.52904053 -42.79724121 58.53928223 -42.82421875 57.51953125 C-42.84033203 56.44638672 -42.85644531 55.37324219 -42.87304688 54.26757812 C-42.91494141 53.14802734 -42.95683594 52.02847656 -43 50.875 C-43.02255859 49.74384766 -43.04511719 48.61269531 -43.06835938 47.44726562 C-43.12735189 44.65102024 -43.2096176 41.85741903 -43.3125 39.0625 C-43.9725 38.7325 -44.6325 38.4025 -45.3125 38.0625 C-46.3025 42.3525 -47.2925 46.6425 -48.3125 51.0625 C-48.9725 50.7325 -49.6325 50.4025 -50.3125 50.0625 C-50.15201172 48.43441406 -50.15201172 48.43441406 -49.98828125 46.7734375 C-49.86628079 45.32820125 -49.74523772 43.88288397 -49.625 42.4375 C-49.55216797 41.72464844 -49.47933594 41.01179688 -49.40429688 40.27734375 C-49.01249925 35.25311534 -49.85699155 32.56529635 -52.3125 28.0625 C-53.22665255 22.34904654 -53.1938777 16.75502044 -50.3125 11.625 C-47.32719636 7.64182327 -44.04665015 4.72606015 -39.3125 3.0625 C-34.09802934 2.47321685 -29.13405958 2.68444046 -24 3.75 C-20.17106975 4.19522445 -17.74747893 2.68630822 -14.3125 1.0625 C-9.59460646 -0.25954709 -4.85637256 -0.04982861 0 0 Z " fill="#B9BED7" transform="translate(56.3125,-0.0625)"/>
<path d="M0 0 C1.84539709 2.43256889 2.04043977 3.57538239 1.75 6.625 C1 9 1 9 -1 11 C-6.1202346 11.56891496 -6.1202346 11.56891496 -9 11 C-11.125 8.875 -11.125 8.875 -12 6 C-11.5 2.8125 -11.5 2.8125 -10 0 C-6.20654426 -2.46061994 -3.8474632 -2.28768082 0 0 Z " fill="#B9BED7" transform="translate(75,109)"/>
<path d="M0 0 C1.66611905 -0.042721 3.33382885 -0.04063832 5 0 C6 1 6 1 6.0625 3.5625 C6.041875 4.366875 6.02125 5.17125 6 6 C4.02 6.99 4.02 6.99 2 8 C0.68 6.68 -0.64 5.36 -2 4 C-1.34 2.68 -0.68 1.36 0 0 Z " fill="#B9BED7" transform="translate(4,55)"/>
</svg>
