<?xml version="1.0" encoding="UTF-8"?>
<svg version="1.1" xmlns="http://www.w3.org/2000/svg" width="64" height="64">
<path d="M0 0 C1.8569751 -0.00472824 1.8569751 -0.00472824 3.75146484 -0.009552 C5.11295609 -0.00776222 6.47444701 -0.00571127 7.8359375 -0.00341797 C9.22216814 -0.00409106 10.60839867 -0.00506113 11.99462891 -0.00631714 C14.90333172 -0.00779387 17.81200387 -0.00564037 20.72070312 -0.00097656 C24.45690348 0.00472073 28.19303202 0.00144159 31.92922974 -0.00454903 C34.79273016 -0.00815532 37.65621343 -0.00701574 40.51971436 -0.00442123 C41.89768482 -0.00375215 43.27565682 -0.00457973 44.65362549 -0.00690079 C46.57637504 -0.00942839 48.49913002 -0.0048957 50.421875 0 C52.06615479 0.00119339 52.06615479 0.00119339 53.74365234 0.00241089 C56.2109375 0.12939453 56.2109375 0.12939453 57.2109375 1.12939453 C57.30993311 2.93448826 57.33892901 4.74346381 57.34033203 6.55126953 C57.34348419 7.70916992 57.34663635 8.86707031 57.34988403 10.06005859 C57.34684769 11.95062988 57.34684769 11.95062988 57.34375 13.87939453 C57.34470673 15.16297852 57.34566345 16.4465625 57.34664917 17.76904297 C57.34812581 20.48943277 57.34597269 23.20978978 57.34130859 25.93017578 C57.33561131 29.42424122 57.33889049 32.91822986 57.34488106 36.41229248 C57.34935504 39.73466606 57.34622635 43.05701877 57.34375 46.37939453 C57.34577423 47.63977539 57.34779846 48.90015625 57.34988403 50.19873047 C57.34515579 51.93558105 57.34515579 51.93558105 57.34033203 53.70751953 C57.33953644 54.73264648 57.33874084 55.75777344 57.33792114 56.81396484 C57.2109375 59.12939453 57.2109375 59.12939453 56.2109375 60.12939453 C54.28331933 60.22860316 52.35204396 60.25738818 50.421875 60.25878906 C49.1838916 60.26194122 47.9459082 60.26509338 46.67041016 60.26834106 C45.30891891 60.26655128 43.94742799 60.26450033 42.5859375 60.26220703 C41.19970686 60.26288012 39.81347633 60.26385019 38.42724609 60.2651062 C35.51854328 60.26658293 32.60987113 60.26442943 29.70117188 60.25976562 C25.96497152 60.25406834 22.22884298 60.25734748 18.49264526 60.26333809 C15.62914484 60.26694438 12.76566157 60.2658048 9.90216064 60.2632103 C8.52419018 60.26254122 7.14621818 60.2633688 5.76824951 60.26568985 C3.84549996 60.26821745 1.92274498 60.26368477 0 60.25878906 C-1.64427979 60.25759567 -1.64427979 60.25759567 -3.32177734 60.25637817 C-5.7890625 60.12939453 -5.7890625 60.12939453 -6.7890625 59.12939453 C-6.88805811 57.3243008 -6.91705401 55.51532525 -6.91845703 53.70751953 C-6.92160919 52.54961914 -6.92476135 51.39171875 -6.92800903 50.19873047 C-6.9259848 48.93834961 -6.92396057 47.67796875 -6.921875 46.37939453 C-6.92331009 44.45401855 -6.92331009 44.45401855 -6.92477417 42.48974609 C-6.92625081 39.7693563 -6.92409769 37.04899928 -6.91943359 34.32861328 C-6.91373631 30.83454784 -6.91701549 27.3405592 -6.92300606 23.84649658 C-6.92748004 20.524123 -6.92435135 17.2017703 -6.921875 13.87939453 C-6.92389923 12.61901367 -6.92592346 11.35863281 -6.92800903 10.06005859 C-6.92485687 8.9021582 -6.92170471 7.74425781 -6.91845703 6.55126953 C-6.91726364 5.0135791 -6.91726364 5.0135791 -6.91604614 3.44482422 C-6.66785717 -1.08067289 -3.91929956 0.00284456 0 0 Z M-3.7890625 3.12939453 C-3.7890625 5.43939453 -3.7890625 7.74939453 -3.7890625 10.12939453 C15.3509375 10.12939453 34.4909375 10.12939453 54.2109375 10.12939453 C54.2109375 7.81939453 54.2109375 5.50939453 54.2109375 3.12939453 C35.0709375 3.12939453 15.9309375 3.12939453 -3.7890625 3.12939453 Z M-3.7890625 13.12939453 C-3.7890625 27.64939453 -3.7890625 42.16939453 -3.7890625 57.12939453 C15.3509375 57.12939453 34.4909375 57.12939453 54.2109375 57.12939453 C54.2109375 42.60939453 54.2109375 28.08939453 54.2109375 13.12939453 C35.0709375 13.12939453 15.9309375 13.12939453 -3.7890625 13.12939453 Z " fill="#FFFFFF" transform="translate(6.7890625,1.87060546875)"/>
<path d="M0 0 C3.375 2 3.375 2 6 5 C6.50687865 7.85647239 6.29795219 10.07013677 6 13 C8.475 13.495 8.475 13.495 11 14 C11.05790353 17.29159316 11.09356261 20.58305603 11.125 23.875 C11.14175781 24.81214844 11.15851562 25.74929687 11.17578125 26.71484375 C11.18222656 27.61074219 11.18867187 28.50664063 11.1953125 29.4296875 C11.20578613 30.25710449 11.21625977 31.08452148 11.22705078 31.93701172 C11 34 11 34 9 36 C6.6015625 36.25878906 6.6015625 36.25878906 3.625 36.265625 C2.55765625 36.26820312 1.4903125 36.27078125 0.390625 36.2734375 C-1.28773437 36.26183594 -1.28773437 36.26183594 -3 36.25 C-4.11890625 36.25773437 -5.2378125 36.26546875 -6.390625 36.2734375 C-7.45796875 36.27085938 -8.5253125 36.26828125 -9.625 36.265625 C-10.60726563 36.26336914 -11.58953125 36.26111328 -12.6015625 36.25878906 C-15 36 -15 36 -17 34 C-17.22705078 31.93701172 -17.22705078 31.93701172 -17.1953125 29.4296875 C-17.18886719 28.53378906 -17.18242187 27.63789062 -17.17578125 26.71484375 C-17.15902344 25.77769531 -17.14226563 24.84054688 -17.125 23.875 C-17.11597656 22.93011719 -17.10695313 21.98523438 -17.09765625 21.01171875 C-17.07404522 18.67422708 -17.04111516 16.33723877 -17 14 C-15.35 13.67 -13.7 13.34 -12 13 C-12.12375 11.783125 -12.2475 10.56625 -12.375 9.3125 C-12.375 5.49728146 -12.08713352 5.09958116 -9.375 2 C-5.66538851 -0.19828829 -4.20058953 -0.87512282 0 0 Z M-7.875 5.6875 C-9.36455477 8.32075756 -9.36455477 8.32075756 -9 13 C-5.04 13 -1.08 13 3 13 C2.67039784 7.98464948 2.67039784 7.98464948 0 4 C-4.33952125 3.42955322 -4.33952125 3.42955322 -7.875 5.6875 Z M-14 16 C-14.020625 18.619375 -14.04125 21.23875 -14.0625 23.9375 C-14.071604 24.7637085 -14.08070801 25.58991699 -14.09008789 26.44116211 C-14.09723945 28.29433759 -14.0502852 30.14749308 -14 32 C-12.41062444 33.58937556 -10.76100154 33.12981143 -8.5625 33.1328125 C-7.22058594 33.13474609 -7.22058594 33.13474609 -5.8515625 33.13671875 C-4.44003906 33.13091797 -4.44003906 33.13091797 -3 33.125 C-2.05898438 33.12886719 -1.11796875 33.13273437 -0.1484375 33.13671875 C0.74617188 33.13542969 1.64078125 33.13414063 2.5625 33.1328125 C3.80193359 33.13112061 3.80193359 33.13112061 5.06640625 33.12939453 C7.00679039 33.21264807 7.00679039 33.21264807 8 32 C8.07325436 29.3013095 8.09222351 26.63497444 8.0625 23.9375 C8.0315625 20.0084375 8.0315625 20.0084375 8 16 C0.74 16 -6.52 16 -14 16 Z " fill="#FFFFFF" transform="translate(35,19)"/>
<path d="M0 0 C3 0.125 3 0.125 4 1.125 C4.55219617 5.81866742 2.95696537 8.96644858 1 13.125 C0.01 12.795 -0.98 12.465 -2 12.125 C-3.6101163 8.39630963 -4.34760216 5.18035854 -4 1.125 C-3 0.125 -3 0.125 0 0 Z " fill="#FFFFFF" transform="translate(32,36.875)"/>
<path d="M0 0 C4.62 0 9.24 0 14 0 C14 0.99 14 1.98 14 3 C9.38 3 4.76 3 0 3 C0 2.01 0 1.02 0 0 Z " fill="#FFFFFF" transform="translate(43,7)"/>
<path d="M0 0 C0.99 0 1.98 0 3 0 C3 0.99 3 1.98 3 3 C2.01 3 1.02 3 0 3 C0 2.01 0 1.02 0 0 Z " fill="#FFFFFF" transform="translate(38,7)"/>
<path d="M0 0 C0.99 0 1.98 0 3 0 C3 0.99 3 1.98 3 3 C2.01 3 1.02 3 0 3 C0 2.01 0 1.02 0 0 Z " fill="#FFFFFF" transform="translate(18,7)"/>
<path d="M0 0 C0.99 0 1.98 0 3 0 C3 0.99 3 1.98 3 3 C2.01 3 1.02 3 0 3 C0 2.01 0 1.02 0 0 Z " fill="#FFFFFF" transform="translate(13,7)"/>
<path d="M0 0 C0.99 0 1.98 0 3 0 C3 0.99 3 1.98 3 3 C2.01 3 1.02 3 0 3 C0 2.01 0 1.02 0 0 Z " fill="#FFFFFF" transform="translate(8,7)"/>
</svg>
